
<svg xmlns="www.w3.org/2000/svg" version="1.1" xmlns:xlink="www.w3.org/1999/xlink" preserveAspectRatio="none" x="0px" y="0px" width="72px" height="38px" viewBox="0 0 72 38">
<defs>
<g id="Layer0_0_FILL">
<path fill="#FFFFFF" stroke="none" d="
M 23.55 25.25
L 20.35 25.25 20.35 37.75 23.55 37.75 23.55 25.25
M 35.5 28.05
L 35.5 25.4
Q 33.95 25 32.45 25 30.25 25 29 26.1 27.75 27.15 27.75 28.9 27.75 31.5 31 32.6
L 31.65 32.8
Q 33.05 33.25 33.05 34.05 33.05 35.2 30.8 35.2 29.95 35.2 28.9 35 27.95 34.8 27.8 34.75
L 27.8 37.6
Q 28.85 37.95 31.2 37.95 33.3 37.95 34.7 37.05 36.4 35.9 36.4 33.75 36.4 31.15 33.4 30.2
L 32.55 29.9
Q 31.1 29.5 31.1 28.7 31.1 27.7 33.05 27.7 34.15 27.7 35.5 28.05
M 16.05 25.45
Q 14.7 25 13.15 25 10.25 25 8.4 26.85 6.5 28.7 6.5 31.5 6.5 34.4 8.5 36.25 10.4 37.95 13.15 37.95 14.85 37.95 16.05 37.5
L 16.05 34.15
Q 15.1 34.8 13.4 34.8 11.85 34.8 10.85 33.85 9.9 32.9 9.9 31.5 9.9 30.05 10.9 29.1 11.85 28.15 13.4 28.15 14.9 28.15 16.05 28.8
L 16.05 25.45
M 0.45 10.65
Q 0 11.15 0 11.8
L 0 15.05
Q 0 15.75 0.45 16.2 0.95 16.65 1.6 16.65 2.25 16.65 2.7 16.2 3.15 15.7 3.15 15.05
L 3.15 11.8
Q 3.15 11.15 2.7 10.65 2.25 10.2 1.6 10.2 0.95 10.2 0.45 10.65
M 11.75 7.45
Q 11.75 6.8 11.3 6.35 10.85 5.9 10.2 5.9 9.55 5.9 9.05 6.35 8.6 6.8 8.6 7.45
L 8.6 15.05
Q 8.6 15.75 9.05 16.2 9.55 16.65 10.2 16.65 10.85 16.65 11.3 16.2 11.75 15.7 11.75 15.05
L 11.75 7.45
M 20.35 18.2
L 20.35 1.6
Q 20.35 0.95 19.9 0.45 19.45 0 18.8 0 18.15 0 17.7 0.45 17.25 0.95 17.25 1.6
L 17.25 18.2
Q 17.25 18.85 17.7 19.3 18.15 19.75 18.8 19.75 19.45 19.75 19.9 19.3 20.35 18.85 20.35 18.2
M 26.3 6.35
Q 25.85 6.8 25.85 7.45
L 25.85 15.05
Q 25.85 15.7 26.3 16.2 26.75 16.65 27.4 16.65 28.05 16.65 28.5 16.2 28.95 15.7 28.95 15.05
L 28.95 7.45
Q 28.95 6.8 28.5 6.35 28.05 5.9 27.4 5.9 26.75 5.9 26.3 6.35
M 37.55 11.8
Q 37.55 11.15 37.1 10.65 36.65 10.2 36 10.2 35.35 10.2 34.9 10.65 34.45 11.15 34.45 11.8
L 34.45 15.05
Q 34.45 15.7 34.9 16.2 35.35 16.65 36 16.65 36.65 16.65 37.1 16.2 37.55 15.7 37.55 15.05
L 37.55 11.8
M 46.35 28.15
Q 47.85 28.15 49 28.8
L 49 25.45
Q 47.65 25 46.1 25 43.2 25 41.35 26.85 39.45 28.7 39.45 31.5 39.45 34.4 41.45 36.25 43.35 37.95 46.1 37.95 47.8 37.95 49 37.5
L 49 34.15
Q 48.05 34.8 46.35 34.8 44.8 34.8 43.8 33.85 42.85 32.9 42.85 31.5 42.85 30.05 43.85 29.1 44.8 28.15 46.35 28.15
M 58.9 25
Q 56.05 25 54.15 26.9 52.3 28.75 52.3 31.5 52.3 34.2 54.15 36.05 56.05 37.95 58.9 37.95 61.75 37.95 63.65 36.05 65.55 34.2 65.55 31.5 65.55 28.75 63.65 26.9 61.75 25 58.9 25
M 56.6 29.15
Q 57.5 28.2 58.9 28.2 60.3 28.2 61.25 29.15 62.2 30.1 62.2 31.5 62.2 32.85 61.25 33.85 60.3 34.8 58.9 34.8 57.55 34.8 56.6 33.85 55.65 32.85 55.65 31.5 55.65 30.1 56.6 29.15
M 46.2 7.45
Q 46.2 6.8 45.75 6.35 45.25 5.9 44.6 5.9 43.95 5.9 43.5 6.35 43.05 6.8 43.05 7.45
L 43.05 15.05
Q 43.05 15.7 43.5 16.2 43.95 16.65 44.6 16.65 45.3 16.65 45.75 16.2 46.2 15.75 46.2 15.05
L 46.2 7.45
M 52.15 0.45
Q 51.7 0.95 51.7 1.6
L 51.7 18.2
Q 51.7 18.85 52.15 19.3 52.6 19.75 53.25 19.75 53.9 19.75 54.35 19.3 54.8 18.85 54.8 18.2
L 54.8 1.6
Q 54.8 0.95 54.35 0.45 53.9 0 53.25 0 52.6 0 52.15 0.45
M 63.4 7.45
Q 63.4 6.8 62.95 6.35 62.5 5.9 61.85 5.9 61.2 5.9 60.7 6.35 60.25 6.8 60.25 7.45
L 60.25 15.05
Q 60.25 15.75 60.7 16.2 61.2 16.65 61.85 16.65 62.5 16.65 62.95 16.2 63.4 15.7 63.4 15.05
L 63.4 7.45
M 72 11.8
Q 72 11.15 71.55 10.65 71.1 10.2 70.45 10.2 69.8 10.2 69.35 10.65 68.9 11.15 68.9 11.8
L 68.9 15.05
Q 68.9 15.7 69.35 16.2 69.8 16.65 70.45 16.65 71.1 16.65 71.55 16.2 72 15.7 72 15.05
L 72 11.8 Z"/>
</g>
</defs>

<g transform="matrix( 1, 0, 0, 1, 0,0) ">
<use xlink:href="#Layer0_0_FILL"/>
</g>
</svg>
